<?xml version="1.0" encoding="UTF-8"?>
<svg version="1.1" viewBox="0 0 1600 1600" width="1280" height="1280" xmlns="http://www.w3.org/2000/svg">
<path transform="translate(0)" d="m0 0h1600v1600h-1600v-1600z" fill="#000002"/>
<path transform="translate(611 359)" d="m0 0c3.16-0.0781 6.32-0.13 9.48-0.172 0.986-0.0216 1.97-0.0432 2.99-0.0654 9.58-0.042 17.5 1.51 24.5 8.32 1.27 1.24 1.27 1.24 2.56 2.5 0.804 0.825 1.61 1.65 2.44 2.5 1.18 1.14 1.18 1.14 2.38 2.31 2.76 2.83 5.34 5.78 7.93 8.77 2.13 2.41 4.39 4.67 6.7 6.92 0.763 0.784 1.53 1.57 2.31 2.38 2.15 2.1 4.34 4.05 6.62 6 3.2 2.76 5.88 5.66 8.54 8.92 2.17 2.43 4.64 4.42 7.2 6.44 0.436 0.416 0.871 0.833 1.32 1.26v2h2v2h2v2h2v2h2v2h2c1.52 1.57 1.52 1.57 3.25 3.69 2.17 2.56 4.16 4.65 6.75 6.81 3.11 2.59 5.6 5.35 8.19 8.44 2.17 2.47 4.47 4.75 6.81 7.06 1.05 1.05 2.1 2.1 3.16 3.16l6.69 6.69c0.534 0.532 1.07 1.06 1.62 1.61 1.43 1.43 2.84 2.88 4.26 4.32 2.27 2.34 2.27 2.34 5.28 4.22v2h2c1.35 1.65 2.69 3.32 4 5 0.66 0.33 1.32 0.66 2 1v2h2c1.35 1.65 2.69 3.32 4 5 0.66 0.33 1.32 0.66 2 1v2h2c4.77 4.3 4.77 4.3 6 8h2v2h2v2h2v2h2v2h2c1.35 1.65 2.69 3.32 4 5 0.66 0.33 1.32 0.66 2 1v2h2v2h2v2h2v2h2v2h2c1.62 1.68 1.62 1.68 3.44 3.88 2.15 2.59 3.73 4.24 6.56 6.12v2h2v2h2c1.45 1.5 1.45 1.5 3.12 3.56 2.47 2.91 4.96 5.48 7.88 7.94 3.57 3.02 6.57 6.3 9.55 9.9 1.37 1.72 1.37 1.72 3.45 2.6v2h2c1.35 1.65 2.69 3.32 4 5l2 1v2h2c1.36 1.64 2.69 3.32 4 5 2.71 2.86 5.54 5.47 8.56 8 2.88 2.42 5.14 5.02 7.44 8 0.66 0.33 1.32 0.66 2 1v2h2c1.48 1.5 1.48 1.5 3.19 3.56 5.66 7.1 5.66 7.1 12.8 12.4v2h2v2h2v2h2v2h2c1.48 1.5 1.48 1.5 3.19 3.56 3.42 4.02 7.04 7.74 10.8 11.4 0.825 0.846 1.65 1.69 2.5 2.56 1.91 1.87 3.82 3.55 5.88 5.25 3.35 2.83 6.16 5.97 9 9.3 2.09 2.42 4.33 4.65 6.62 6.88 0.825 0.846 1.65 1.69 2.5 2.56 2.39 2.43 2.39 2.43 4.88 4.25 3 2.5 5.39 5.27 7.92 8.23 1.42 1.63 2.93 3.18 4.45 4.71 4.05 4.05 4.05 4.05 5.25 6.25-0.0739 3.62-0.307 5.33-2.94 7.88-2.06 1.12-2.06 1.12-4.06 1.12-0.34 0.835-0.34 0.835-0.688 1.69-1.66 2.92-3.93 4.98-6.31 7.31-1.13 1.13-2.27 2.27-3.4 3.41-0.63 0.632-1.26 1.26-1.91 1.92-0.679 0.681-1.36 1.36-2.06 2.06-1.52 1.53-3.04 3.05-4.56 4.58-0.809 0.812-1.62 1.62-2.45 2.46-18.1 18.1-36.1 36.2-54.2 54.3-2.67 2.67-5.34 5.34-8.01 8.02-0.531 0.532-1.06 1.06-1.61 1.61-8.62 8.63-17.2 17.3-25.8 25.9-8.84 8.87-17.7 17.7-26.5 26.6-5.46 5.46-10.9 10.9-16.4 16.4-4.17 4.19-8.35 8.37-12.5 12.6-1.72 1.72-3.43 3.44-5.14 5.16-2.33 2.35-4.67 4.68-7.02 7.02-0.679 0.687-1.36 1.37-2.06 2.08-3.33 3.3-5.84 5.3-10.3 6.92-0.898 3.05-0.898 3.05-1 6 0.578 0.238 1.15 0.477 1.75 0.723 2.72 1.54 4.23 3.33 6.25 5.71 4.44 5.07 9.19 9.53 14.2 14 3.69 3.36 7.14 6.74 10.3 10.6 2.39 2.99 2.39 2.99 5.31 5.19 0.722 0.578 1.44 1.16 2.19 1.75v2c0.575 0.236 1.15 0.472 1.74 0.715 2.75 1.57 4.34 3.43 6.38 5.85 2.57 3.18 2.57 3.18 5.88 5.44v2h2v2h2c0.557 0.701 1.11 1.4 1.69 2.12 1.85 2.3 3.39 3.86 5.62 5.69 3.4 2.82 6.2 5.95 9.06 9.3 2.9 3.37 5.93 6.35 9.44 9.07 0.722 0.598 1.44 1.2 2.19 1.81v2h2c1.35 1.65 2.69 3.32 4 5 0.66 0.33 1.32 0.66 2 1v2h2v2h2c3.57 3.32 6.8 6.94 10.1 10.6 5.77 6.36 11.8 12.4 17.9 18.4 0.879 0.898 1.76 1.8 2.66 2.72 2.31 2.4 2.31 2.4 5.34 4.28v2h2c1.16 1.4 2.32 2.81 3.45 4.23 1.68 1.92 3.47 3.5 5.42 5.14 3.53 3.01 6.53 6.25 9.54 9.78 2.08 2.41 4.31 4.63 6.59 6.85 0.743 0.763 1.48 1.53 2.25 2.31 2.32 2.26 4.68 4.38 7.12 6.5 3.67 3.24 6.91 6.64 10.1 10.4 1.34 1.56 2.79 3.04 4.25 4.5 7.29 7.29 7.41 13.3 7.45 23.2-0.00304 1.23-0.00304 1.23-0.00613 2.49 0.00263 1.34 0.00263 1.34 0.00531 2.71 0.00436 2.92 0.0015 5.85-0.00189 8.77 6.74e-4 2.04 0.00165 4.09 0.0029 6.13 0.00147 4.26-6.54e-4 8.53-0.00534 12.8-0.00572 5.47-0.0024 10.9 0.00357 16.4 0.00361 4.21 0.00247 8.42-1.28e-4 12.6-6.68e-4 2.02 1.53e-4 4.04 0.00248 6.05 0.00253 2.81-0.00132 5.62-0.0069 8.44 0.00202 0.835 0.00405 1.67 0.00613 2.53-0.0121 3.29-0.0864 5.96-1.14 9.11-6.94 0.229-13.9 0.386-20.8 0.494-2.36 0.0451-4.71 0.106-7.07 0.185-22.1 0.716-22.1 0.716-28.5-5.04-2.02-2.42-2.02-2.42-3.57-4.64-0.908-0.908-1.82-1.82-2.75-2.75-0.743-0.742-1.48-1.49-2.25-2.25-0.949-0.763-1.9-1.53-2.88-2.31-3.2-2.61-5.79-5.63-8.46-8.77-2.1-2.43-4.36-4.68-6.66-6.92-0.825-0.846-1.65-1.69-2.5-2.56-2.39-2.43-2.39-2.43-4.88-4.25-2.29-1.91-4.02-3.74-5.94-6-2.42-2.84-4.9-5.34-7.75-7.75-3.21-2.72-5.9-5.59-8.58-8.82-3.13-3.73-6.69-6.93-10.4-10.1-4.62-4.02-8.79-8.25-12.8-12.9-3.23-3.67-6.64-6.9-10.4-10.1-6.22-5.31-6.22-5.31-7.89-8.75-0.785-1.96-0.785-1.96-2.75-2.69-2.62-1.35-3.96-3.18-5.75-5.47-2.11-2.43-4.57-4.36-7.08-6.36-0.447-0.428-0.895-0.856-1.36-1.3v-2c-0.557-0.206-1.11-0.412-1.69-0.625-3.17-1.89-4.99-4.53-7.31-7.38-1.33-1.01-2.66-2.01-4-3v-2c-0.639-0.268-1.28-0.536-1.94-0.812-2.06-1.19-2.06-1.19-3.06-4.19h-2v-2c-0.593-0.254-1.19-0.508-1.8-0.77-2.45-1.37-3.7-2.75-5.45-4.92-3.07-3.65-6.35-6.68-10.1-9.67-1.82-1.76-2.61-3.38-3.7-5.64-1.33-0.683-2.66-1.35-4-2-0.33-0.99-0.66-1.98-1-3-0.557-0.268-1.11-0.536-1.69-0.812-3.35-1.72-5.94-4.27-8.31-7.19v-2c-0.58-0.255-1.16-0.51-1.76-0.773-2.47-1.35-4.14-2.86-6.13-4.85l-2.15-2.14c-0.73-0.737-1.46-1.47-2.21-2.23-0.745-0.737-1.49-1.47-2.26-2.23-0.704-0.706-1.41-1.41-2.13-2.14-0.967-0.971-0.967-0.971-1.95-1.96-1.41-1.66-1.41-1.66-1.41-3.66-0.897-0.383-0.897-0.383-1.81-0.773-3.02-1.69-4.57-4.03-6.62-6.77-1.69-1.92-1.69-1.92-5.56-1.46 9.22e-4 1.3 0.00184 2.6 0.00279 3.94 0.0216 30.8 0.0381 61.7 0.0483 92.5 0.00125 3.8 0.00255 7.59 0.00387 11.4 2.62e-4 0.756 5.25e-4 1.51 7.95e-4 2.29 0.00435 12.2 0.0122 24.5 0.0214 36.7 0.00934 12.6 0.0149 25.1 0.0169 37.7 0.00137 7.75 0.00572 15.5 0.0138 23.3 0.0059 5.94 0.00654 11.9 0.00519 17.8 2.76e-4 2.44 0.00228 4.88 0.0061 7.32 0.00495 3.32 0.00379 6.64 0.00105 9.97 0.00291 0.973 0.00583 1.95 0.00883 2.95-0.00199 0.889-0.00398 1.78-0.00603 2.69 3.8e-4 0.767 7.59e-4 1.53 0.00115 2.32-0.13 2.21-0.333 4.04-1.12 6.12-2.73 0.911-4.33 1.13-7.14 1.13-0.843 0.00426-1.69 0.00853-2.55 0.0129-1.38-6.8e-4 -1.38-6.8e-4 -2.79-0.00137-1.46 0.00504-1.46 0.00504-2.95 0.0102-3.22 0.00951-6.44 0.0115-9.66 0.0125-2.23 0.00321-4.47 0.00658-6.7 0.0101-4.68 0.00599-9.36 0.00784-14 0.00725-6.01-1.02e-4 -12 0.0136-18 0.0308-4.61 0.0111-9.22 0.0131-13.8 0.0126-2.22 0.00118-4.43 0.00563-6.65 0.0133-3.09 0.00975-6.19 0.00694-9.28 8.95e-4 -0.923 0.00562-1.85 0.0112-2.8 0.017-0.84-0.00419-1.68-0.00839-2.54-0.0127-0.732 5.45e-4 -1.46 0.00109-2.22 0.00165-1.8-0.249-1.8-0.249-3.8-2.25-0.251-2.53-0.251-2.53-0.252-5.81-0.00526-1.25-0.0105-2.5-0.0159-3.78 0.00427-1.4 0.00871-2.8 0.0133-4.2-0.00239-1.48-0.00565-2.96-0.00972-4.44-0.00868-4.1-0.00477-8.21 0.00106-12.3 0.00415-4.45-0.00322-8.9-0.00915-13.4-0.00879-7.81-0.0101-15.6-0.0065-23.4 0.00529-11.6-7.71e-4 -23.2-0.00908-34.9-0.0153-22-0.0169-43.9-0.0145-65.9 0.00183-17 7.95e-5 -33.9-0.00422-50.9-6.02e-4 -2.43-0.0012-4.86-0.0018-7.3-9.07e-4 -3.66-0.00182-7.33-0.00273-11-0.00843-34.1-0.0128-68.2-0.00859-102 1.56e-4 -1.29 3.13e-4 -2.57 4.74e-4 -3.9 8.06e-4 -6.52 0.00165-13 0.00251-19.6 1.71e-4 -1.29 3.42e-4 -2.59 5.18e-4 -3.92 3.47e-4 -2.62 6.95e-4 -5.24 0.00105-7.86 0.00536-40.7-0.00257-81.5-0.021-122-0.0207-45.7-0.0314-91.5-0.0274-137 3.95e-4 -4.87 7.57e-4 -9.75 0.0011-14.6 9.07e-5 -1.2 1.81e-4 -2.4 2.75e-4 -3.64 0.00117-18.1-0.0055-36.3-0.0161-54.4-0.012-20.6-0.0136-41.3-0.00121-61.9 0.00665-11.6 0.00494-23.1-0.00859-34.7-0.0082-7.71-0.0056-15.4 0.00598-23.1 0.0063-4.4 0.00775-8.8-0.00386-13.2-0.0105-4-0.00727-7.99 0.0071-12 0.00274-1.44 3.86e-4 -2.88-0.00751-4.33-0.00995-1.95 2.24e-4 -3.9 0.0115-5.85-2.05e-5 -1.08-4.09e-5 -2.16-6.2e-5 -3.28 0.428-3.17 1.09-4.55 3.37-6.78 2.85-0.481 5.32-0.7 8.19-0.75 0.824-0.0267 1.65-0.0535 2.5-0.0811 3.8-0.108 7.6-0.151 11.4-0.247z" fill="#FDFDFD"/>
<path transform="translate(692,574)" d="m0 0c4.44 0.73 6.25 1.77 9.38 5.06 1.16 1.21 1.16 1.21 2.35 2.45 2.63 2.88 5.18 5.81 7.72 8.77 1.99 2.19 4.21 3.92 6.55 5.71 4.84 4.51 4.84 4.51 6 8 0.66 0.33 1.32 0.66 2 1 0.66 0.33 1.32 0.66 2 1 0.33 0.99 0.66 1.98 1 3 0.557 0.268 1.11 0.536 1.69 0.812 3.35 1.72 5.94 4.27 8.31 7.19v2c0.639 0.268 1.28 0.536 1.94 0.812 2.06 1.19 2.06 1.19 3.06 4.19 1.32 0.702 2.65 1.37 4 2 1.75 1.5 1.75 1.5 3 3v2c0.557 0.206 1.11 0.413 1.69 0.625 3.17 1.89 4.99 4.53 7.31 7.38 1.33 1.01 2.66 2.01 4 3v2c0.639 0.268 1.28 0.536 1.94 0.812 2.06 1.19 2.06 1.19 3.06 4.19 0.577 0.289 1.15 0.577 1.75 0.875 3.05 1.52 4.98 3.61 7.25 6.12 0.33 0.99 0.66 1.98 1 3h2c1.71 1.62 3.37 3.3 5 5l10 10c0.598 0.557 1.2 1.11 1.81 1.69 1.19 1.31 1.19 1.31 1.19 3.31 0.619 0.289 1.24 0.577 1.88 0.875 2.12 1.12 2.12 1.12 4.12 3.12-0.244 2.53-0.824 3.79-2.44 5.75-1.56 1.25-1.56 1.25-3.56 1.25-0.0954 0.597-0.191 1.19-0.289 1.81-0.872 2.69-1.89 3.51-4.09 5.26-5.52 4.62-10.5 9.7-15.6 14.8-1.04 1.04-2.07 2.07-3.11 3.11-2.16 2.16-4.31 4.32-6.47 6.47-2.76 2.77-5.53 5.53-8.29 8.29-2.14 2.13-4.27 4.27-6.4 6.4-1.02 1.02-2.04 2.04-3.06 3.06-1.42 1.42-2.84 2.84-4.26 4.26-0.806 0.807-1.61 1.61-2.44 2.45-2.12 2.14-2.12 2.14-3.97 5.1h-2c-0.33 0.99-0.66 1.98-1 3-1.67 1.61-1.67 1.61-3.75 3.31-2.56 2.16-4.86 4.25-6.94 6.88-2.31 2.81-2.31 2.81-4.69 4.69-3.03 2.46-5.4 5.22-7.93 8.17-3.87 4.46-8.16 8.18-12.7 12-1.27 1.36-1.27 1.36-2.56 2.75-2.59 2.39-3.95 3.06-7.44 3.25-1.88-1.88-1.13-5.1-1.13-7.6-0.00156-0.698-0.00312-1.4-0.00473-2.12-0.00401-2.36-8.18e-4 -4.72 0.00232-7.08-0.00135-1.69-0.00313-3.37-0.00531-5.06-0.00458-4.61-0.00278-9.21 3.79e-4 -13.8 0.00254-4.85 1.81e-4 -9.71-0.00139-14.6-0.00183-8.2 5.87e-4 -16.4 0.00534-24.6 0.00537-9.36 0.00374-18.7-0.00183-28.1-0.00461-8.1-0.00514-16.2-0.00256-24.3 0.00153-4.81 0.00185-9.62-0.00154-14.4-0.0162-26.5 0.388-52.9 1.14-79.4z" fill="#000002"/>
</svg>
