<svg xmlns="http://www.w3.org/2000/svg" xmlns:xlink="http://www.w3.org/1999/xlink" viewBox="0 0 77.63 78.21"><defs><filter id="luminosity-noclip" x="3.2" y="-9051.44" width="69.11" height="32766" filterUnits="userSpaceOnUse" color-interpolation-filters="sRGB"><feFlood flood-color="#fff" result="bg"/><feBlend in="SourceGraphic" in2="bg"/></filter><mask id="mask" x="3.2" y="-9051.44" width="69.11" height="32766" maskUnits="userSpaceOnUse"><g style="filter:url(#luminosity-noclip)"/></mask><linearGradient id="linear-gradient" x1="29.33" y1="14.39" x2="50.21" y2="65.67" gradientUnits="userSpaceOnUse"><stop offset="0.2" stop-color="#fff"/><stop offset="0.62"/></linearGradient><filter id="luminosity-noclip-2" x="11.34" y="-9051.44" width="53.99" height="32766" filterUnits="userSpaceOnUse" color-interpolation-filters="sRGB"><feFlood flood-color="#fff" result="bg"/><feBlend in="SourceGraphic" in2="bg"/></filter><mask id="mask-2" x="11.34" y="-9051.44" width="53.99" height="32766" maskUnits="userSpaceOnUse"><g style="filter:url(#luminosity-noclip-2)"/></mask><linearGradient id="linear-gradient-2" x1="27.18" y1="12.25" x2="52.59" y2="66.52" xlink:href="#linear-gradient"/><mask id="mask-3" x="3.2" y="3.18" width="69.11" height="41.11" maskUnits="userSpaceOnUse"><g style="mask:url(#mask)"><path d="M35.74,32.86l.25-.07,1.73-.45a190.66,190.66,0,0,1,34.59-5.47A35.58,35.58,0,0,0,3.2,39.11a36.69,36.69,0,0,0,.37,5.17C13.36,38.82,25.08,35.62,35.74,32.86Z" style="mix-blend-mode:multiply;fill:url(#linear-gradient)"/></g></mask><linearGradient id="linear-gradient-3" x1="29.33" y1="14.39" x2="50.21" y2="65.67" gradientUnits="userSpaceOnUse"><stop offset="0.2" stop-color="#ffcf51"/><stop offset="0.62" stop-color="#ffcf00"/></linearGradient><linearGradient id="linear-gradient-4" x1="37.58" y1="32.23" x2="42.55" y2="59.94" gradientUnits="userSpaceOnUse"><stop offset="0" stop-color="#cb7b11"/><stop offset="0.36" stop-color="#dd930c"/><stop offset="0.66" stop-color="#e69a0a"/><stop offset="0.83" stop-color="#eba719"/><stop offset="0.83" stop-color="#f3bc32"/><stop offset="1" stop-color="#ffda54"/></linearGradient><mask id="mask-4" x="11.34" y="11.18" width="53.99" height="31.18" maskUnits="userSpaceOnUse"><g style="mask:url(#mask-2)"><path d="M22.32,38.89c7.58-2.11,15.25-4.07,23-5.49a148.08,148.08,0,0,1,20-2.51,27.57,27.57,0,0,0-54,8.22,26.75,26.75,0,0,0,.2,3.25C15.08,41.1,18.66,39.91,22.32,38.89Z" style="mix-blend-mode:multiply;fill:url(#linear-gradient-2)"/></g></mask><linearGradient id="linear-gradient-5" x1="27.18" y1="12.25" x2="52.59" y2="66.52" xlink:href="#linear-gradient-3"/></defs><g id="Layer_2" data-name="Layer 2"><ellipse cx="38.82" cy="39.11" rx="35.62" ry="35.93" style="fill:#f2b829"/><path d="M38.82,75.44A36.33,36.33,0,1,1,74.88,39.11,36.23,36.23,0,0,1,38.82,75.44Zm0-71.86a35.53,35.53,0,0,0,0,71.05,35.53,35.53,0,0,0,0-71Z" style="fill:#ffed8b"/><g style="mask:url(#mask-3)"><path d="M35.74,32.86l.25-.07,1.73-.45a190.66,190.66,0,0,1,34.59-5.47A35.58,35.58,0,0,0,3.2,39.11a36.69,36.69,0,0,0,.37,5.17C13.36,38.82,25.08,35.62,35.74,32.86Z" style="fill:url(#linear-gradient-3)"/></g><ellipse cx="38.82" cy="39.11" rx="29.2" ry="29.45" style="fill:url(#linear-gradient-4)"/><ellipse cx="39.03" cy="39.11" rx="27.68" ry="27.93" style="fill:#f2b829"/><g style="mask:url(#mask-4)"><path d="M22.32,38.89c7.58-2.11,15.25-4.07,23-5.49a148.08,148.08,0,0,1,20-2.51,27.57,27.57,0,0,0-54,8.22,26.75,26.75,0,0,0,.2,3.25C15.08,41.1,18.66,39.91,22.32,38.89Z" style="fill:url(#linear-gradient-5)"/></g><path d="M44.65,66.25c-1.3,0-2.66,0-4-.09s-2.37-.55-3.37.26A1.09,1.09,0,0,0,37,68c.9,1.23,2.65.88,4.06.7a9.22,9.22,0,0,0,4-1.47C45.62,66.89,45.22,66.25,44.65,66.25Z" style="fill:#fff"/><path d="M32,3.66a2.45,2.45,0,0,0-1.57-.3c-.58.12-1,.51-1,1.09a1.08,1.08,0,0,0,1.2.86,2.52,2.52,0,0,0,1.55-.78A.54.54,0,0,0,32,3.66Z" style="fill:#fff"/><path d="M45.58,21.46a.73.73,0,0,0-.72.73v1.46h-4.2a.73.73,0,0,0-.73.73V40.05a.73.73,0,0,0,.73.73h3.1v-.73a1.46,1.46,0,0,1,1.46-1.46h2.92a1.46,1.46,0,0,1,1.45,1.46v.73h3.83a.73.73,0,0,0,.73-.73V24.38a.73.73,0,0,0-.73-.73H49.23V22.19a.73.73,0,0,0-.73-.73Zm-.35,15.31L42.38,25.55h2.18l2.37,9.86h.23l2.37-9.86h2.18L48.86,36.77Z" style="fill:#fff;fill-rule:evenodd"/><path d="M31,39.32a.73.73,0,0,0-.73.73v1.46H25.58a.73.73,0,0,0-.73.73V55.72a.73.73,0,0,0,.73.73H53.42a.73.73,0,0,0,.73-.73V42.24a.73.73,0,0,0-.73-.73H48.86V40.05a.73.73,0,0,0-.72-.73H45.22a.73.73,0,0,0-.73.73v1.46H34.65V40.05a.73.73,0,0,0-.73-.73Zm2.56,4V54.59h2V44.92h.29l1.92,9.67h3.5l1.92-9.67h.29v9.67h2V43.37H41.65l-1.94,9.78h-.28l-2-9.78Z" style="fill:#fff;fill-rule:evenodd"/><path d="M31,30.75h2A1.75,1.75,0,0,0,34,30.42a1.16,1.16,0,0,0,.43-1v-.16a1.2,1.2,0,0,0-.41-1A1.79,1.79,0,0,0,32.93,28H31Z" style="fill:#fff"/><path d="M31,26.07H32.9A1.64,1.64,0,0,0,34,25.73a1.1,1.1,0,0,0,.43-.93v-.16a1.11,1.11,0,0,0-.42-.93,1.71,1.71,0,0,0-1.09-.34H31Z" style="fill:#fff"/><path d="M30.51,17.37a.72.72,0,0,0-.72.73v1.45h-4.2a.73.73,0,0,0-.73.73V36a.73.73,0,0,0,.73.73H29.3V35.34a.73.73,0,0,1,.72-.73h3.9a.73.73,0,0,1,.73.73v1.35h3.7a.73.73,0,0,0,.73-.73V20.28a.73.73,0,0,0-.73-.73H34.16V18.1a.73.73,0,0,0-.73-.73Zm-1.22,3h1.1v1.09h2V20.36h1.09v1.1a3.92,3.92,0,0,1,1.47.34,2.65,2.65,0,0,1,1.62,2.49v.16a2.57,2.57,0,0,1-.29,1.27,2.28,2.28,0,0,1-.69.75,3.19,3.19,0,0,1-.74.37v.29a2.44,2.44,0,0,1,.77.37,2.14,2.14,0,0,1,.71.75,2.48,2.48,0,0,1,.3,1.3v.16a2.88,2.88,0,0,1-.43,1.6,2.77,2.77,0,0,1-1.2,1,3.82,3.82,0,0,1-1.52.35v1.1H32.35V32.68h-2v1.09h-1.1V32.68H27.35V30.82h1.48V23.31H27.35V21.45h1.94Z" style="fill:#fff;fill-rule:evenodd"/></g></svg>